<svg width="38" height="33" viewBox="0 0 38 33" fill="none" xmlns="http://www.w3.org/2000/svg">
<path d="M4.12064 25.9195C4.85008 26.1337 5.08872 26.2206 5.31333 26.072C6.03256 25.5973 5.67762 23.3202 5.49078 22.4147C5.3431 21.6921 5.309 21.0406 5.64494 20.3296C5.89035 19.6729 5.47904 18.7447 5.48802 18.042C5.74795 16.259 5.92849 14.5299 6.33301 12.7615C10.6176 14.7638 14.9537 16.7127 19.0631 19.0573C19.4572 19.3311 19.7764 19.3671 20.2009 19.1337C21.8001 18.2565 23.4112 17.4028 25.0248 16.5535C26.6195 15.7139 28.2071 14.8583 29.8231 14.064C31.9716 13.0071 34.1496 12.0131 36.3015 10.965C36.8438 10.7006 36.8693 10.1691 36.3901 9.79844C33.0655 7.92536 29.4522 6.47374 25.9889 4.87012C23.953 4.12904 21.8857 3.51737 20.1564 2.10215C19.675 1.70747 19.0058 1.5375 18.4051 1.31137C17.4319 1.14037 16.6481 2.14891 15.7937 2.51138C13.2279 4.18832 10.495 5.48089 7.66316 6.60948C5.85392 7.52558 4.10163 8.56009 2.33898 9.56847C2.0491 9.73428 1.58668 10.1078 1.6302 10.2546C2.15728 11.5152 3.82257 11.6951 4.89411 12.3094C4.46382 14.0195 4.86623 18.2256 3.00794 18.7066C1.55761 19.3432 2.81968 20.1571 2.58748 21.0255C1.0627 22.4521 0.224008 24.029 0.67215 24.8296C0.907148 25.249 1.29461 25.0954 4.1203 25.9237L4.12064 25.9195Z" fill="#00C8B3"/>
<path d="M29.9313 20.5571C29.3388 19.6535 28.7817 18.6923 28.4177 17.6782C28.0671 16.7031 27.6741 16.4842 26.7836 17.0318C24.5217 18.4234 22.2391 19.7795 19.9516 21.1268C19.7517 21.2452 19.3946 21.2988 19.2085 21.1979C5.23322 13.3735 12.339 16.6656 9.58223 22.5716C8.03037 25.7863 5.7923 27.5982 11.1818 26.7227C14.6566 26.9161 18.5569 27.9981 20.4064 31.2345C20.8621 31.9598 21.4944 32.0383 21.8586 31.3885C23.815 27.8293 27.4943 25.1863 31.556 24.8422C33.9805 24.5171 30.2982 21.5687 29.9311 20.5585L29.9313 20.5571Z" fill="#00C8B3"/>
</svg>
