<svg width="50" height="50" viewBox="0 0 50 50" fill="none" xmlns="http://www.w3.org/2000/svg">
<path d="M4.21777 48.9238C4.4698 48.9737 4.73158 49 5 49V50C4.66605 50 4.34004 49.9658 4.02441 49.9033L4.21777 48.9238ZM6 49V50H5V49H6ZM10 49V50H8V49H10ZM14 49V50H12V49H14ZM18 49V50H16V49H18ZM22 49V50H20V49H22ZM26 49V50H24V49H26ZM30 49V50H28V49H30ZM34 49V50H32V49H34ZM38 49V50H36V49H38ZM42 49V50H40V49H42ZM45 49V50H44V49H45ZM45.8789 49.4141L45.9746 49.9033C45.7407 49.9496 45.5012 49.9808 45.2568 49.9932L45 50V49C45.2684 49 45.5302 48.9737 45.7822 48.9238L45.8789 49.4141ZM1.67285 47.2217C1.96517 47.6583 2.34168 48.0348 2.77832 48.3271L2.22168 49.1572C1.67639 48.7921 1.2068 48.3227 0.841797 47.7773L1.67285 47.2217ZM49.1572 47.7773C48.7921 48.3228 48.3228 48.7921 47.7773 49.1572L47.2217 48.3271C47.6583 48.0348 48.0348 47.6583 48.3271 47.2217L49.1572 47.7773ZM0 45V44H1V45C1 45.2684 1.02631 45.5302 1.07617 45.7822L0.584961 45.8779L0.0957031 45.9746C0.0494928 45.7408 0.0191999 45.5012 0.00683594 45.2568L0 45ZM49.9932 45.2568C49.9808 45.5012 49.9496 45.7407 49.9033 45.9746L49.4141 45.8789L48.9238 45.7822C48.9737 45.5302 49 45.2684 49 45V44H50V45L49.9932 45.2568ZM1 40V42H0V40H1ZM50 40V42H49V40H50ZM1 36V38H0V36H1ZM50 36V38H49V36H50ZM1 32V34H0V32H1ZM50 32V34H49V32H50ZM1 28V30H0V28H1ZM50 28V30H49V28H50ZM1 24V26H0V24H1ZM50 24V26H49V24H50ZM1 20V22H0V20H1ZM50 20V22H49V20H50ZM1 16V18H0V16H1ZM50 16V18H49V16H50ZM1 12V14H0V12H1ZM50 12V14H49V12H50ZM1 8V10H0V8H1ZM50 8V10H49V8H50ZM0 5C7.79002e-08 4.66611 0.0332822 4.33998 0.0957031 4.02441L1.07617 4.21777C1.02631 4.4698 1 4.73158 1 5V6H0V5ZM50 6H49V5C49 4.73158 48.9737 4.4698 48.9238 4.21777L49.9033 4.02441C49.9658 4.34004 50 4.66605 50 5V6ZM2.77832 1.67285C2.34168 1.96517 1.96517 2.34168 1.67285 2.77832L0.841797 2.22168C1.20684 1.67642 1.67642 1.20684 2.22168 0.841797L2.77832 1.67285ZM47.7773 0.841797C48.3227 1.2068 48.7921 1.67639 49.1572 2.22168L48.3271 2.77832C48.0348 2.34168 47.6583 1.96517 47.2217 1.67285L47.7773 0.841797ZM6 0V1H5C4.73158 1 4.4698 1.02631 4.21777 1.07617L4.12012 0.583008L4.02441 0.0957031C4.33998 0.0332823 4.66611 4.86861e-09 5 0H6ZM45.2568 0.00683594C45.5012 0.0191999 45.7408 0.0494927 45.9746 0.0957031L45.8799 0.583008L45.7822 1.07617C45.5302 1.02631 45.2684 1 45 1H44V0H45L45.2568 0.00683594ZM10 0V1H8V0H10ZM14 0V1H12V0H14ZM18 0V1H16V0H18ZM22 0V1H20V0H22ZM26 0V1H24V0H26ZM30 0V1H28V0H30ZM34 0V1H32V0H34ZM38 0V1H36V0H38ZM42 0V1H40V0H42Z" fill="#00C8B3"/>
<path d="M9.94635 34.541C10.6758 34.7552 10.9144 34.8421 11.139 34.6934C11.8583 34.2188 11.5033 31.9417 11.3165 31.0362C11.1688 30.3136 11.1347 29.6621 11.4707 28.951C11.7161 28.2944 11.3048 27.3662 11.3137 26.6635C11.5737 24.8805 11.7542 23.1513 12.1587 21.383C16.4433 23.3853 20.7794 25.3342 24.8888 27.6788C25.2829 27.9526 25.6021 27.9886 26.0266 27.7551C27.6258 26.878 29.2369 26.0243 30.8505 25.175C32.4452 24.3354 34.0328 23.4798 35.6488 22.6854C37.7973 21.6286 39.9753 20.6346 42.1272 19.5865C42.6695 19.322 42.695 18.7906 42.2158 18.4199C38.8912 16.5468 35.2779 15.0952 31.8146 13.4916C29.7787 12.7505 27.7115 12.1389 25.9821 10.7236C25.5007 10.3289 24.8316 10.159 24.2308 9.93285C23.2576 9.76185 22.4738 10.7704 21.6194 11.1329C19.0536 12.8098 16.3208 14.1024 13.4889 15.231C11.6796 16.1471 9.92734 17.1816 8.16469 18.1899C7.87481 18.3558 7.41239 18.7293 7.45591 18.8761C7.98299 20.1366 9.64828 20.3166 10.7198 20.9309C10.2895 22.641 10.6919 26.847 8.83365 27.3281C7.38332 27.9647 8.64539 28.7785 8.41319 29.6469C6.88841 31.0736 6.04972 32.6505 6.49786 33.4511C6.73286 33.8705 7.12033 33.7169 9.94601 34.5451L9.94635 34.541Z" fill="#00C8B3"/>
<path d="M35.757 29.1786C35.1645 28.2749 34.6074 27.3138 34.2434 26.2997C33.8928 25.3246 33.4998 25.1056 32.6094 25.6533C30.3474 27.0448 28.0648 28.401 25.7773 29.7483C25.5774 29.8667 25.2203 29.9203 25.0342 29.8194C11.0589 21.995 18.1647 25.2871 15.4079 31.1931C13.8561 34.4078 11.618 36.2197 17.0075 35.3441C20.4823 35.5376 24.3827 36.6195 26.2321 39.8559C26.6878 40.5813 27.3201 40.6598 27.6843 40.01C29.6407 36.4508 33.32 33.8077 37.3817 33.4637C39.8062 33.1386 36.124 30.1901 35.7569 29.18L35.757 29.1786Z" fill="#00C8B3"/>
</svg>
